<?xml version="1.0" encoding="UTF-8"?><svg xmlns="http://www.w3.org/2000/svg" xmlns:xlink="http://www.w3.org/1999/xlink" version="1.1" id="Layer_1" x="0px" y="0px" viewBox="0 0 16 16" xml:space="preserve"><path d="M8.32 7.68L.58 15.42c-.37-.35-.57-.83-.57-1.35V1.93C.01 1.4.22.92.6.56l7.72 7.12z" fill="#2196F3"/><path d="M15.01 8c0 .7-.38 1.32-1.01 1.67l-2.2 1.22-2.73-2.52-.75-.69 2.89-2.89L14 6.33c.63.35 1.01.97 1.01 1.67z" fill="#FFC107"/><path d="M8.32 7.68L.6.56C.7.46.83.37.96.29 1.59-.09 2.35-.1 3 .26l8.21 4.53-2.89 2.89z" fill="#4CAF50"/><path d="M11.8 10.89L3 15.74c-.31.18-.66.26-1 .26-.36 0-.72-.09-1.04-.29a1.82 1.82 0 0 1-.38-.29l7.74-7.74.75.69 2.73 2.52z" fill="#F44336"/><metadata><rdf:RDF xmlns:rdf="http://www.w3.org/1999/02/22-rdf-syntax-ns#" xmlns:rdfs="http://www.w3.org/2000/01/rdf-schema#" xmlns:dc="http://purl.org/dc/elements/1.1/"><rdf:Description about="https://iconscout.com/legal#licenses" dc:title="google,play,logo,color,e" dc:description="google,play,logo,color,e" dc:publisher="Iconscout" dc:date="2018-02-17" dc:format="image/svg+xml" dc:language="en"><dc:creator><rdf:Bag><rdf:li>Pixel Icons</rdf:li></rdf:Bag></dc:creator></rdf:Description></rdf:RDF></metadata></svg>